# xmcd
#
# Track frame offsets: 
#        150
#        14058
#        32110
#        53967
#        75620
#
# Disc length: 1196 seconds
#
# Revision: 0
# Processed by: cddbd v1.5.2PL0 Copyright (c) Steve Scherf et al.
# Submitted via: ExactAudioCopyFreeDBPlugin 1.0
#
DISCID=3a04aa05
DTITLE=おやすみホログラム - Band Demo Vol.2
DYEAR=2017
DGENRE=Punk
TTITLE0=Hole of my underground
TTITLE1=before
TTITLE2=帰り路
TTITLE3=slow dancer
TTITLE4=session song
EXTD=
EXTT0=
EXTT1=
EXTT2=
EXTT3=
EXTT4=
PLAYORDER=
